<svg width="24" height="24" viewBox="0 0 24 24" fill="none" xmlns="http://www.w3.org/2000/svg">
<g clip-path="url(#clip0_242_98)">
<path d="M11.6887 23.6181L12.3653 23.0394C13.2981 22.2602 21.4429 15.2425 21.4429 10.1093C21.4429 4.73482 17.0757 0.37793 11.6887 0.37793C6.30156 0.37793 1.93444 4.73482 1.93444 10.1093C1.93444 15.2426 10.0792 22.2603 11.0082 23.0433L11.6887 23.6181ZM11.6887 2.48213C15.9089 2.4869 19.3289 5.89889 19.3337 10.1092C19.3337 13.3341 14.3227 18.4857 11.6887 20.8435C9.05458 18.4847 4.04363 13.3302 4.04363 10.1092C4.04841 5.89889 7.46836 2.48695 11.6887 2.48213Z" fill="white"/>
<path d="M11.6887 13.9668C13.8241 13.9668 15.5552 12.2398 15.5552 10.1094C15.5552 7.97898 13.8241 6.25195 11.6887 6.25195C9.55329 6.25195 7.8222 7.97898 7.8222 10.1094C7.8222 12.2398 9.55324 13.9668 11.6887 13.9668ZM11.6887 8.18062C12.7564 8.18062 13.6219 9.04414 13.6219 10.1093C13.6219 11.1745 12.7564 12.0381 11.6887 12.0381C10.621 12.0381 9.75545 11.1745 9.75545 10.1093C9.75545 9.04414 10.6209 8.18062 11.6887 8.18062Z" fill="white"/>
</g>
<defs>
<clipPath id="clip0_242_98">
<rect width="23.2959" height="23.2414" rx="11.6207" transform="matrix(-1 0 0 1 23.2959 0.369141)" fill="white"/>
</clipPath>
</defs>
</svg>
