<svg width="24" height="16" viewBox="0 0 24 16" fill="none" xmlns="http://www.w3.org/2000/svg">
<path d="M1 7C0.447715 7 0 7.44772 0 8C0 8.55228 0.447715 9 1 9L1 7ZM22.9844 8.70711C23.375 8.31658 23.375 7.68342 22.9844 7.29289L16.6205 0.928932C16.2299 0.538408 15.5968 0.538408 15.2063 0.928932C14.8157 1.31946 14.8157 1.95262 15.2063 2.34315L20.8631 8L15.2063 13.6569C14.8157 14.0474 14.8157 14.6805 15.2063 15.0711C15.5968 15.4616 16.2299 15.4616 16.6205 15.0711L22.9844 8.70711ZM1 9L22.2773 9V7L1 7L1 9Z" fill="black"/>
</svg>
