<svg width="28" height="28" viewBox="0 0 28 28" fill="none" xmlns="http://www.w3.org/2000/svg">
<rect width="27.3913" height="27.3913" rx="5" fill="#1B4E9B"/>
<path d="M15.9361 3.92898C15.5682 4.02599 15.3612 4.37874 15.4743 4.71826C15.5332 4.89757 15.6861 5.04896 15.8724 5.11363C15.9377 5.13714 16.0221 5.14743 16.2068 5.15772C16.546 5.17683 16.8645 5.20916 17.132 5.25326C19.1083 5.5722 20.8297 6.66866 21.8728 8.26925C22.4461 9.14965 22.7884 10.2035 22.841 11.2412C22.8458 11.3499 22.8601 11.4793 22.8728 11.5278C22.9206 11.7041 23.048 11.8438 23.2455 11.9305C23.3585 11.9805 23.3745 11.9834 23.5241 11.9834C23.6722 11.9834 23.6914 11.979 23.798 11.9334C23.9907 11.8496 24.1357 11.685 24.185 11.4925C24.2089 11.4014 24.1978 11.1162 24.1595 10.7796C23.9812 9.18934 23.3123 7.75336 22.1897 6.54814C21.9205 6.25859 21.4428 5.83382 21.1116 5.58837C19.8551 4.65946 18.3439 4.08919 16.7514 3.94368C16.3597 3.9084 16.0396 3.90252 15.9361 3.92898Z" fill="white"/>
<path d="M15.2559 6.21648C15.0871 6.24587 14.9183 6.35023 14.8243 6.47957C14.6205 6.75883 14.6969 7.14685 14.9915 7.33499C15.1221 7.41729 15.2033 7.4364 15.5139 7.45845C16.2846 7.5143 16.9391 7.68185 17.5729 7.9861C18.0459 8.21392 18.4042 8.45349 18.7927 8.80183C19.7339 9.64696 20.2753 10.7434 20.3565 11.9766C20.3693 12.1809 20.4059 12.297 20.4903 12.4057C20.734 12.7217 21.2324 12.7526 21.5222 12.4719C21.6862 12.3117 21.7245 12.1765 21.7006 11.8487C21.5907 10.351 20.9314 9.00319 19.796 7.95964C18.6685 6.92198 17.2274 6.32083 15.6094 6.21501C15.3594 6.19884 15.3482 6.19884 15.2559 6.21648Z" fill="white"/>
<path d="M7.52397 6.36344C7.19114 6.40166 6.86469 6.52365 6.51594 6.74118C5.58435 7.32174 4.83271 8.31973 4.33267 9.63518C4.21324 9.95119 4.06196 10.445 3.99985 10.7199C3.77213 11.7429 3.99348 12.9613 4.65435 14.3238C5.30248 15.6628 6.47772 17.2751 7.80265 18.6435C8.2772 19.1344 9.44129 20.0251 10.47 20.685C11.5879 21.4023 12.6756 21.9446 13.682 22.2871C13.9145 22.3665 14.0196 22.3973 14.3349 22.487C14.4432 22.5164 14.7792 22.5884 14.9719 22.6237C15.3589 22.6913 15.5962 22.7119 16.0229 22.7119C16.5134 22.7133 16.7109 22.6898 17.2077 22.5752C18.4498 22.2856 19.4658 21.8491 20.2748 21.2553C20.4914 21.0966 20.8592 20.76 21.0185 20.5748C21.2701 20.2823 21.4787 19.9501 21.5551 19.715C21.6348 19.4769 21.6666 19.1359 21.638 18.8478C21.5408 17.9071 20.9946 17.1223 20.0598 16.5843C19.6792 16.3653 18.9722 16.067 18.5342 15.9391C17.8192 15.7318 17.1504 15.7113 16.6058 15.8803C16.1551 16.0185 15.8191 16.2639 15.4863 16.6946C15.1805 17.0929 14.9114 17.328 14.5945 17.475C14.3843 17.5735 14.2585 17.5985 14.0005 17.597C13.8062 17.5955 13.7585 17.5911 13.6342 17.5558C13.4352 17.5 13.1884 17.3883 12.9813 17.2604C12.1501 16.746 10.1897 14.9073 9.75023 14.2297C9.64831 14.0725 9.55276 13.8696 9.50658 13.7168C9.45244 13.5331 9.44607 13.2626 9.49225 13.1083C9.6085 12.7158 9.94292 12.3455 10.5035 11.9912C11.2647 11.5106 11.5832 10.7169 11.4032 9.7513C11.3092 9.24422 11.0592 8.62985 10.7057 8.03753C10.3092 7.37172 9.81233 6.91167 9.19127 6.63388C8.90622 6.50748 8.67213 6.43693 8.35523 6.38255C8.19121 6.35609 7.69436 6.34287 7.52397 6.36344ZM8.27242 7.382C8.85208 7.49812 9.32663 7.83764 9.68016 8.38881C9.99228 8.87677 10.2582 9.49114 10.3394 9.9115C10.3793 10.1232 10.3761 10.4318 10.3315 10.5876C10.2582 10.8478 10.1117 11.0329 9.85055 11.1976C8.71513 11.9148 8.21032 12.8525 8.42689 13.8373C8.49696 14.1562 8.68328 14.5487 8.91578 14.872C9.42059 15.5731 10.9764 17.0635 12.0099 17.8351C12.545 18.2334 13.0434 18.4671 13.5658 18.5641C13.8158 18.6097 14.2282 18.6097 14.4655 18.5627C15.1901 18.4216 15.8494 17.9718 16.3796 17.256C16.5612 17.012 16.7602 16.8724 17.0262 16.8033C17.1711 16.7666 17.5485 16.7592 17.746 16.7886C18.1887 16.8577 18.7158 17.037 19.2381 17.3001C19.5996 17.4809 19.7939 17.6117 20.0136 17.8219C20.3512 18.1452 20.5248 18.5053 20.5614 18.9654C20.5742 19.1256 20.5471 19.3754 20.5057 19.4724C20.3735 19.7811 19.942 20.2426 19.4977 20.5513C18.8273 21.0157 18.004 21.3567 16.9609 21.6036C16.5262 21.7065 16.3446 21.7256 15.8955 21.7168C15.5213 21.708 15.3796 21.6933 15.0245 21.6242C13.5451 21.3391 11.7042 20.3984 9.75023 18.9301C9.07184 18.4201 8.76131 18.1511 8.37434 17.7352C6.65926 15.8876 5.4888 14.0122 5.12253 12.5218C5.03017 12.1441 5.00629 11.9442 5.00469 11.5577C5.0031 11.1711 5.01265 11.0961 5.10024 10.7566C5.46969 9.32947 6.16878 8.18892 7.02553 7.61717C7.2214 7.48783 7.45868 7.38053 7.59085 7.3629C7.73576 7.34232 8.13388 7.35408 8.27242 7.382Z" fill="white"/>
<path d="M14.3565 8.59438C14.1639 8.63995 14.0094 8.76341 13.9186 8.94272C13.8772 9.02209 13.874 9.04414 13.874 9.19846C13.874 9.35426 13.8772 9.37484 13.9186 9.45127C13.9871 9.58061 14.1033 9.68937 14.2403 9.7511C14.347 9.79961 14.3756 9.80548 14.6002 9.82459C15.0716 9.86575 15.4553 9.96128 15.8328 10.1303C16.2086 10.2979 16.4522 10.4551 16.7468 10.7197C17.0414 10.9843 17.2405 11.2312 17.4157 11.5501C17.6402 11.9587 17.7278 12.2586 17.7978 12.8582C17.8281 13.111 17.9603 13.2903 18.1928 13.3918C18.3823 13.4726 18.6307 13.4623 18.8122 13.3638C18.9062 13.3124 19.0368 13.1801 19.083 13.0875C19.1451 12.9626 19.1562 12.87 19.1371 12.6569C19.0033 11.1753 18.1132 9.88338 16.715 9.14261C16.1353 8.83396 15.4522 8.63848 14.7578 8.58115C14.5206 8.56205 14.4839 8.56352 14.3565 8.59438Z" fill="white"/>
</svg>
